<svg width="136" height="32" viewBox="0 0 136 32" fill="none" xmlns="http://www.w3.org/2000/svg">
<path d="M19.964 4.64C19.992 4.752 20.006 4.878 20.006 5.018C20.006 5.13 19.964 5.228 19.88 5.312C19.824 5.368 19.754 5.41 19.67 5.438C19.586 5.466 19.53 5.494 19.502 5.522C18.886 5.718 18.382 5.816 17.99 5.816C17.71 5.816 17.388 5.746 17.024 5.606C16.744 5.354 16.408 5.172 16.016 5.06C15.624 4.948 14.812 4.85 13.58 4.766C12.768 4.85 12.054 4.892 11.438 4.892C11.242 5.928 10.92 6.852 10.472 7.664C10.36 8.196 10.206 8.672 10.01 9.092C9.814 9.652 9.73 9.974 9.758 10.058C9.674 10.17 9.408 10.884 8.96 12.2C8.512 13.488 8.092 14.748 7.7 15.98C7.42 16.848 7.21 17.478 7.07 17.87C6.93 18.15 6.748 18.598 6.524 19.214C6.328 19.802 6.188 20.222 6.104 20.474L5.054 23.372C4.83 23.792 4.55 24.464 4.214 25.388C3.906 26.284 3.654 27.096 3.458 27.824L3.038 29.294C2.898 29.798 2.772 30.176 2.66 30.428C2.576 30.68 2.506 30.82 2.45 30.848C2.394 30.876 2.254 30.876 2.03 30.848C1.806 30.848 1.554 30.666 1.274 30.302C1.022 29.966 0.896 29.63 0.896 29.294C0.896 28.678 1.106 27.642 1.526 26.186C1.974 24.73 2.394 23.568 2.786 22.7C2.898 22.196 2.996 21.79 3.08 21.482C3.192 21.174 3.262 20.95 3.29 20.81C3.374 20.698 3.5 20.404 3.668 19.928C3.864 19.424 4.018 18.962 4.13 18.542C4.214 18.038 5.082 15.224 6.734 10.1L7.028 9.218C7.28 8.798 7.518 8.266 7.742 7.622C7.966 7.482 8.078 7.188 8.078 6.74C8.078 6.656 8.12 6.544 8.204 6.404C8.316 6.264 8.372 6.166 8.372 6.11C8.428 6.054 8.484 5.928 8.54 5.732C8.624 5.508 8.722 5.34 8.834 5.228V5.186L8.162 5.228L6.104 5.438L5.18 5.522C3.556 5.662 2.618 5.76 2.366 5.816C1.526 5.872 0.924 5.83 0.56 5.69C0.224 5.55 0.112 5.27 0.224 4.85C0.308 4.514 0.476001 4.262 0.728001 4.094C1.008 3.926 1.428 3.8 1.988 3.716C2.24 3.66 2.73 3.576 3.458 3.464L4.592 3.254L6.02 3.086C7.644 2.834 9.366 2.666 11.186 2.582C11.942 2.554 12.572 2.526 13.076 2.498C13.608 2.442 13.958 2.4 14.126 2.372C14.518 2.4 15.148 2.47 16.016 2.582C16.912 2.694 17.556 2.82 17.948 2.96C18.564 3.1 19.012 3.296 19.292 3.548C19.6 3.8 19.824 4.164 19.964 4.64ZM13.871 27.53C13.647 27.362 13.493 27.208 13.409 27.068C13.325 26.928 13.283 26.718 13.283 26.438C13.283 26.186 13.297 25.976 13.325 25.808C13.409 24.856 13.619 23.75 13.955 22.49L14.165 21.65C14.249 20.95 14.739 19.48 15.635 17.24C16.531 15 17.259 13.474 17.819 12.662C18.043 12.522 18.281 12.452 18.533 12.452C18.897 12.452 19.205 12.578 19.457 12.83C19.625 12.942 19.709 13.152 19.709 13.46C19.709 13.74 19.597 14.16 19.373 14.72C19.177 15.252 18.827 16.05 18.323 17.114C18.211 17.338 18.015 17.758 17.735 18.374C17.483 18.99 17.357 19.354 17.357 19.466C17.357 19.522 17.371 19.55 17.399 19.55C17.455 19.55 17.511 19.536 17.567 19.508C17.623 19.452 17.679 19.41 17.735 19.382C18.043 18.85 18.785 18.122 19.961 17.198C21.165 16.274 21.991 15.7 22.439 15.476C22.635 15.364 22.887 15.252 23.195 15.14C23.503 15.028 23.713 14.944 23.825 14.888C24.273 14.664 24.805 14.552 25.421 14.552C25.813 14.552 26.149 14.622 26.429 14.762C26.737 14.874 26.947 15.056 27.059 15.308C27.087 15.504 27.157 15.658 27.269 15.77C27.409 15.882 27.507 15.952 27.563 15.98C27.647 15.98 27.703 16.022 27.731 16.106C27.759 16.162 27.773 16.204 27.773 16.232C27.773 16.428 27.661 16.554 27.437 16.61C27.213 16.638 26.807 16.666 26.219 16.694C25.911 16.722 25.589 16.792 25.253 16.904C24.917 17.016 24.581 17.156 24.245 17.324C22.677 18.22 21.501 18.92 20.717 19.424C19.961 19.928 19.191 20.614 18.407 21.482C18.099 21.818 17.693 22.42 17.189 23.288C16.993 23.484 16.783 24.002 16.559 24.842C16.363 25.654 16.265 26.158 16.265 26.354C16.237 26.438 16.181 26.606 16.097 26.858C16.013 27.082 15.887 27.306 15.719 27.53C15.383 27.978 15.103 28.202 14.879 28.202C14.627 28.202 14.291 27.978 13.871 27.53ZM28.2967 27.488C28.2127 27.32 28.0727 27.152 27.8767 26.984C27.7087 26.788 27.6247 26.662 27.6247 26.606C27.6247 26.298 27.5547 26.06 27.4147 25.892C27.3587 25.836 27.3307 25.71 27.3307 25.514C27.3307 25.066 27.5407 24.31 27.9607 23.246C28.4087 22.154 28.9827 20.978 29.6827 19.718C29.8507 19.55 30.0607 19.256 30.3127 18.836C30.5927 18.416 30.7747 18.178 30.8587 18.122C30.8587 18.01 30.9007 17.912 30.9847 17.828C31.0687 17.716 31.1667 17.66 31.2787 17.66V17.408C31.2787 17.156 31.7407 16.554 32.6647 15.602C33.5887 14.622 34.3447 13.95 34.9327 13.586C35.6327 13.11 36.3467 12.872 37.0747 12.872C37.5787 12.872 38.0127 13.012 38.3767 13.292C38.5167 13.46 39.1607 14.062 40.3087 15.098L41.8627 16.484L41.1067 18.584C40.8547 19.34 40.7287 20.026 40.7287 20.642C40.7287 21.706 41.0367 22.728 41.6527 23.708C41.7927 24.016 42.0727 24.31 42.4927 24.59C42.9127 24.87 43.3327 25.038 43.7527 25.094C44.3687 25.206 44.6767 25.514 44.6767 26.018C44.6767 26.578 44.4247 26.914 43.9207 27.026C43.8087 27.054 43.6407 27.068 43.4167 27.068C41.7647 27.068 40.3367 25.906 39.1327 23.582C39.0207 23.414 38.8667 23.106 38.6707 22.658C38.5027 22.21 38.4047 21.902 38.3767 21.734C38.2087 21.958 37.9987 22.224 37.7467 22.532C37.4947 22.84 37.2567 23.106 37.0327 23.33C33.9807 26.382 31.5727 27.908 29.8087 27.908C29.2487 27.908 28.7447 27.768 28.2967 27.488ZM29.8087 25.136C29.8087 25.276 29.9487 25.318 30.2287 25.262C30.5367 25.206 30.9007 25.066 31.3207 24.842C31.7687 24.618 32.2167 24.324 32.6647 23.96C35.0727 21.888 36.8087 20.082 37.8727 18.542L38.7967 17.03C38.5167 16.442 38.2227 16.022 37.9147 15.77C37.6067 15.49 37.3267 15.35 37.0747 15.35C36.4867 15.35 35.5627 16.092 34.3027 17.576C33.0427 19.032 31.8947 20.754 30.8587 22.742C30.6067 23.218 30.3827 23.708 30.1867 24.212C29.9907 24.688 29.8647 24.996 29.8087 25.136ZM50.6207 27.656C50.3407 27.852 50.1587 27.95 50.0747 27.95C49.9627 27.95 49.7387 27.782 49.4027 27.446C48.8987 26.942 48.5347 26.004 48.3107 24.632C48.0867 23.232 47.9747 21.216 47.9747 18.584C48.1147 17.072 48.1847 15.63 48.1847 14.258C48.2687 14.146 48.4367 14.09 48.6887 14.09C48.9687 14.09 49.2067 14.146 49.4027 14.258C49.6827 14.398 49.8647 14.608 49.9487 14.888C50.0607 15.168 50.1307 15.714 50.1587 16.526C50.1867 17.338 50.2007 18.374 50.2007 19.634C50.1167 20.754 50.0747 21.734 50.0747 22.574C50.0747 23.358 50.1167 23.82 50.2007 23.96C50.3127 24.156 50.4387 24.212 50.5787 24.128C50.7187 24.044 51.0127 23.778 51.4607 23.33L53.0987 20.852C53.2387 20.712 53.4907 20.376 53.8547 19.844L54.5267 19.004C54.6107 18.864 54.7507 18.668 54.9467 18.416C55.1707 18.136 55.3107 17.926 55.3667 17.786C55.6747 17.282 55.9967 16.848 56.3327 16.484C56.6687 16.12 56.8927 15.938 57.0047 15.938C57.1167 15.994 57.1867 16.022 57.2147 16.022C57.2707 16.022 57.3407 16.008 57.4247 15.98C57.5087 15.952 57.5787 15.938 57.6347 15.938C57.7467 15.826 57.8587 15.77 57.9707 15.77C58.1387 15.77 58.2927 15.826 58.4327 15.938C58.7127 16.162 58.8527 16.358 58.8527 16.526C58.8527 16.75 58.6287 17.268 58.1807 18.08C57.7327 18.864 57.4107 19.312 57.2147 19.424L56.7947 19.844C56.7107 20.208 56.1927 21.034 55.2407 22.322C54.3167 23.61 53.3927 24.842 52.4687 26.018C52.1887 26.382 51.8667 26.718 51.5027 27.026C51.1667 27.334 50.8727 27.544 50.6207 27.656ZM64.273 29.126C63.069 29.126 62.075 28.678 61.291 27.782C60.507 26.886 60.115 25.766 60.115 24.422C60.115 23.078 60.409 21.608 60.997 20.012C61.613 18.388 62.397 16.932 63.349 15.644C64.301 14.356 65.267 13.488 66.247 13.04C66.807 12.732 67.437 12.578 68.137 12.578C68.669 12.578 69.271 12.732 69.943 13.04C70.419 13.236 70.783 13.474 71.035 13.754C71.287 14.034 71.511 14.468 71.707 15.056C71.791 15.56 71.833 15.91 71.833 16.106C71.833 16.274 71.763 16.638 71.623 17.198C71.287 18.234 70.839 19.116 70.279 19.844C69.747 20.544 69.047 21.146 68.179 21.65C67.731 21.93 67.171 22.07 66.499 22.07C65.911 22.07 65.351 21.972 64.819 21.776C64.315 21.552 63.923 21.23 63.643 20.81L63.349 20.474L63.223 20.81C62.635 22.322 62.341 23.61 62.341 24.674C62.341 25.402 62.481 25.99 62.761 26.438C62.957 26.746 63.433 26.9 64.189 26.9C64.749 26.9 65.155 26.844 65.407 26.732C65.827 26.592 66.191 26.424 66.499 26.228C66.835 26.004 67.157 25.78 67.465 25.556L67.633 25.472H67.591C67.927 25.304 68.207 25.15 68.431 25.01C68.655 24.87 68.809 24.772 68.893 24.716C68.949 24.716 69.005 24.702 69.061 24.674C69.117 24.646 69.173 24.59 69.229 24.506C69.481 24.394 69.775 24.436 70.111 24.632C70.447 24.828 70.615 25.08 70.615 25.388C70.559 25.612 70.307 25.976 69.859 26.48C69.411 26.984 69.075 27.25 68.851 27.278C68.823 27.278 68.725 27.32 68.557 27.404C68.389 27.488 68.277 27.558 68.221 27.614H68.263C68.011 27.95 67.759 28.118 67.507 28.118H67.171C67.059 28.342 66.681 28.566 66.037 28.79C65.421 29.014 64.833 29.126 64.273 29.126ZM66.163 19.886C67.003 19.886 67.773 19.41 68.473 18.458C69.145 17.562 69.481 16.666 69.481 15.77C69.481 15.294 69.383 14.958 69.187 14.762C69.019 14.678 68.865 14.636 68.725 14.636C68.585 14.636 68.347 14.678 68.011 14.762C67.647 14.846 67.087 15.238 66.331 15.938C65.575 16.61 65.015 17.212 64.651 17.744L64.105 18.626C64.329 18.542 64.539 18.5 64.735 18.5C64.959 18.472 65.085 18.486 65.113 18.542C65.113 18.934 65.211 19.256 65.407 19.508C65.603 19.76 65.855 19.886 66.163 19.886ZM73.9412 29.378C73.5772 29.266 73.3112 29.056 73.1432 28.748C72.9752 28.44 72.8772 28.006 72.8492 27.446C72.8492 27.054 72.9332 26.466 73.1012 25.682C73.2692 24.87 73.3672 24.366 73.3952 24.17L73.4372 23.834C73.4652 23.694 73.5072 23.442 73.5632 23.078C73.6472 22.714 73.6892 22.63 73.6892 22.826L73.9832 21.692C74.1792 20.936 74.3752 20.236 74.5712 19.592C74.7672 18.948 74.9072 18.486 74.9912 18.206L75.4952 16.778C76.4472 14.034 77.2312 12.256 77.8472 11.444C77.8752 11.332 77.9172 11.234 77.9732 11.15C78.0292 11.038 78.0712 10.926 78.0992 10.814C78.1272 10.478 78.2252 10.184 78.3932 9.932C78.6452 9.512 78.8552 9.134 79.0232 8.798L79.1912 8.336C79.6392 7.384 80.0312 6.656 80.3672 6.152C80.4792 5.9 80.6332 5.606 80.8292 5.27C81.0532 4.934 81.2352 4.696 81.3752 4.556L81.3332 4.514C81.4732 4.29 81.6272 4.15 81.7952 4.094C81.9912 4.038 82.2432 4.01 82.5512 4.01C82.9152 4.01 83.1252 4.066 83.1812 4.178C83.2652 4.262 83.3072 4.514 83.3072 4.934V5.312C83.3072 5.592 83.2792 5.802 83.2232 5.942C83.1952 6.082 83.0972 6.25 82.9292 6.446H82.9712C82.9712 6.446 82.9432 6.516 82.8872 6.656C82.8312 6.796 82.7752 6.922 82.7192 7.034C82.5232 7.538 82.3832 7.818 82.2992 7.874C82.1312 8.07 81.5572 9.176 80.5772 11.192C79.6252 13.18 78.9812 14.594 78.6452 15.434L78.4352 16.064L78.3512 16.316C78.0432 16.988 77.8752 17.352 77.8472 17.408L77.1332 19.844L76.9232 20.726L76.5452 21.65L76.2932 22.448C76.2372 22.56 76.1952 22.7 76.1672 22.868C76.1392 23.036 76.0832 23.162 75.9992 23.246L75.9572 23.456C75.6212 24.996 75.3972 26.48 75.2852 27.908L75.2432 28.076C75.1872 28.552 75.0892 28.902 74.9492 29.126C74.8092 29.35 74.6132 29.462 74.3612 29.462C74.3052 29.462 74.1652 29.434 73.9412 29.378ZM82.7169 31.142C82.4649 31.03 82.1709 30.806 81.8349 30.47C81.2189 30.078 80.7569 29.63 80.4489 29.126C80.1409 28.622 79.9729 27.936 79.9449 27.068C79.9449 26.844 80.1269 26.536 80.4909 26.144C80.8829 25.724 81.3029 25.514 81.7509 25.514C82.0029 25.514 82.2549 25.598 82.5069 25.766C82.2549 26.578 82.1289 27.124 82.1289 27.404C82.1289 27.768 82.2549 28.062 82.5069 28.286C82.7869 28.482 83.2629 28.65 83.9349 28.79C84.3269 28.874 84.6909 28.916 85.0269 28.916C85.4749 28.916 86.0909 28.846 86.8749 28.706C87.6589 28.65 88.2609 28.594 88.6809 28.538C89.1009 28.454 89.4089 28.328 89.6049 28.16C90.4169 27.824 91.1449 27.432 91.7889 26.984C92.4329 26.508 92.8669 26.032 93.0909 25.556C93.3709 25.192 93.5389 24.898 93.5949 24.674C93.6509 24.45 93.6789 24.184 93.6789 23.876C93.6789 23.568 93.6789 23.344 93.6789 23.204C93.6509 22.308 93.5809 21.692 93.4689 21.356C93.3569 20.992 92.9929 20.166 92.3769 18.878C92.3769 18.71 92.1109 18.332 91.5789 17.744C91.0469 17.128 90.6969 16.722 90.5289 16.526C90.1649 15.77 89.8569 15.182 89.6049 14.762C89.3809 14.342 89.1009 14.02 88.7649 13.796C88.6809 13.684 88.5689 13.446 88.4289 13.082C88.2889 12.718 88.1909 12.522 88.1349 12.494C88.1069 12.466 88.0649 12.396 88.0089 12.284C87.9529 12.144 87.8829 11.976 87.7989 11.78C87.5749 11.276 87.4629 10.744 87.4629 10.184C87.4629 9.4 87.6309 8.588 87.9669 7.748C88.3309 6.88 88.8489 6.068 89.5209 5.312C89.8289 4.78 90.3889 4.136 91.2009 3.38C92.0409 2.596 92.5449 2.204 92.7129 2.204C92.7689 2.176 92.8809 2.134 93.0489 2.078C93.2449 1.994 93.4549 1.868 93.6789 1.7C93.9309 1.644 94.2809 1.532 94.7289 1.364C95.1769 1.168 95.5549 1.07 95.8629 1.07C96.2829 0.929999 96.6189 0.831999 96.8709 0.775998C97.1509 0.691999 97.4309 0.649999 97.7109 0.649999L98.9289 0.733998C100.329 1.098 101.197 1.826 101.533 2.918L101.827 4.724L100.063 6.026C99.7269 6.138 99.3069 6.194 98.8029 6.194C98.4669 6.194 98.1729 6.18 97.9209 6.152C97.6689 6.124 97.5009 6.096 97.4169 6.068C97.2769 6.068 97.2069 5.998 97.2069 5.858C97.2069 5.774 97.2349 5.704 97.2909 5.648C97.3749 5.592 97.4589 5.564 97.5429 5.564C97.6269 5.48 97.7669 5.34 97.9629 5.144C98.1589 4.92 98.3549 4.71 98.5509 4.514C98.7469 4.206 98.8449 3.954 98.8449 3.758C98.8449 3.618 98.7889 3.534 98.6769 3.506C98.5929 3.45 98.4249 3.422 98.1729 3.422L97.0809 3.506C96.0729 3.562 95.1209 3.828 94.2249 4.304C93.3289 4.752 92.5869 5.41 91.9989 6.278C91.3269 6.866 90.8229 7.482 90.4869 8.126C90.1509 8.77 89.9829 9.344 89.9829 9.848C90.1229 10.52 90.3609 11.164 90.6969 11.78L93.0909 15.098C93.7349 15.91 94.0569 16.372 94.0569 16.484V16.694C94.1129 16.694 94.3369 17.072 94.7289 17.828C95.1209 18.584 95.3169 19.032 95.3169 19.172L95.6949 20.054C95.8349 20.194 95.9749 20.782 96.1149 21.818C96.2549 22.854 96.3249 23.652 96.3249 24.212C96.2969 24.688 96.1149 25.22 95.7789 25.808C95.4709 26.396 95.0789 26.942 94.6029 27.446C94.0149 28.062 93.1609 28.748 92.0409 29.504C90.9209 30.26 89.9549 30.736 89.1429 30.932C88.6669 31.1 88.0369 31.24 87.2529 31.352C86.4969 31.464 85.7409 31.52 84.9849 31.52C83.7249 31.52 82.9689 31.394 82.7169 31.142ZM108.393 11.024C107.861 11.024 107.315 10.744 106.755 10.184C106.223 9.596 105.957 8.994 105.957 8.378C105.957 8.238 106.125 7.916 106.461 7.412C106.797 6.908 106.965 6.628 106.965 6.572C107.161 6.572 107.329 6.586 107.469 6.614C107.609 6.642 107.777 6.698 107.973 6.782C108.225 7.342 108.617 7.916 109.149 8.504C109.317 8.728 109.471 8.938 109.611 9.134C109.751 9.33 109.821 9.498 109.821 9.638C109.821 10.114 109.793 10.436 109.737 10.604C109.709 10.772 109.597 10.884 109.401 10.94C109.233 10.996 108.897 11.024 108.393 11.024ZM102.219 26.942C102.135 26.942 102.023 26.914 101.883 26.858C101.743 26.802 101.645 26.76 101.589 26.732C101.589 26.648 101.547 26.508 101.463 26.312C101.407 26.088 101.379 25.948 101.379 25.892C101.155 25.78 101.043 25.64 101.043 25.472C101.043 25.332 101.085 25.136 101.169 24.884C101.533 24.24 102.177 22.784 103.101 20.516C104.025 18.22 104.543 16.862 104.655 16.442C104.655 16.33 104.697 16.19 104.781 16.022C104.865 15.854 104.963 15.714 105.075 15.602C105.187 15.49 105.313 15.434 105.453 15.434C105.761 15.434 106.041 15.644 106.293 16.064C106.573 16.484 106.713 16.946 106.713 17.45C106.713 17.786 106.391 18.752 105.747 20.348C105.131 21.916 104.431 23.498 103.647 25.094C103.535 25.318 103.367 25.64 103.143 26.06C102.947 26.48 102.793 26.732 102.681 26.816C102.569 26.9 102.415 26.942 102.219 26.942ZM112.573 28.706C112.125 28.622 111.663 28.328 111.187 27.824C110.739 27.292 110.445 26.802 110.305 26.354C110.305 26.298 110.277 26.242 110.221 26.186C110.165 26.102 110.123 26.046 110.095 26.018C109.983 25.934 109.927 25.472 109.927 24.632C109.927 23.96 109.955 23.26 110.011 22.532C110.095 21.804 110.193 21.216 110.305 20.768L111.061 18.542L111.649 16.862L112.783 14.426L111.103 13.964C110.907 13.936 110.739 13.838 110.599 13.67C110.487 13.502 110.431 13.348 110.431 13.208C110.431 12.984 110.543 12.718 110.767 12.41C111.019 12.074 111.215 11.906 111.355 11.906C111.439 11.934 111.663 11.948 112.027 11.948C112.867 11.948 113.497 11.906 113.917 11.822C114.197 11.71 114.393 11.486 114.505 11.15C114.617 10.926 114.743 10.646 114.883 10.31C115.051 9.974 115.205 9.666 115.345 9.386C115.429 9.218 115.555 8.966 115.723 8.63C115.919 8.266 116.157 7.86 116.437 7.412C116.493 7.328 116.619 7.132 116.815 6.824C117.011 6.488 117.249 6.208 117.529 5.984C117.725 5.788 117.963 5.69 118.243 5.69C118.523 5.69 118.887 5.872 119.335 6.236C119.391 6.32 119.461 6.432 119.545 6.572C119.657 6.712 119.713 6.838 119.713 6.95C119.713 7.062 119.601 7.3 119.377 7.664C119.209 8 119.041 8.308 118.873 8.588C118.733 8.84 118.607 9.064 118.495 9.26C118.159 9.82 117.921 10.24 117.781 10.52C117.501 10.884 117.361 11.164 117.361 11.36C117.361 11.556 117.543 11.654 117.907 11.654C118.299 11.654 118.957 11.57 119.881 11.402C120.273 11.346 120.539 11.318 120.679 11.318C121.659 11.318 122.191 11.724 122.275 12.536C122.303 12.704 122.317 12.9 122.317 13.124C122.317 13.516 122.177 13.754 121.897 13.838C121.645 13.922 121.057 13.964 120.133 13.964C119.237 14.104 118.313 14.174 117.361 14.174C117.193 14.174 116.997 14.188 116.773 14.216C116.577 14.216 116.367 14.244 116.143 14.3C115.919 14.356 115.751 14.44 115.639 14.552C115.555 14.664 115.457 14.846 115.345 15.098C115.261 15.182 115.065 15.504 114.757 16.064C114.365 16.876 114.113 17.366 114.001 17.534C113.245 19.774 112.685 22.07 112.321 24.422C112.265 24.87 112.237 25.15 112.237 25.262C112.237 25.682 112.377 25.976 112.657 26.144C112.937 26.312 113.413 26.396 114.085 26.396C115.037 26.396 115.863 26.298 116.563 26.102C117.403 25.738 118.033 25.43 118.453 25.178C118.705 25.038 118.929 24.912 119.125 24.8C119.349 24.66 119.503 24.562 119.587 24.506C119.671 24.338 119.769 24.254 119.881 24.254C120.105 24.254 120.301 24.478 120.469 24.926C120.469 25.374 120.371 25.766 120.175 26.102C119.979 26.438 119.489 26.83 118.705 27.278C117.081 28.314 115.457 28.832 113.833 28.832C113.385 28.832 112.965 28.79 112.573 28.706ZM130.551 27.53C129.851 28.146 129.011 28.454 128.031 28.454C127.331 28.454 126.659 28.286 126.015 27.95C125.399 27.614 124.881 27.152 124.461 26.564C124.097 26.116 123.831 25.612 123.663 25.052C123.495 24.492 123.411 23.806 123.411 22.994C123.411 22.714 123.439 22.154 123.495 21.314C123.579 20.278 123.915 19.2 124.503 18.08C125.119 16.96 125.875 15.966 126.771 15.098C127.667 14.202 128.549 13.586 129.417 13.25C129.865 12.97 130.271 12.83 130.635 12.83C130.831 12.83 131.027 12.844 131.223 12.872C131.419 12.9 131.629 12.928 131.853 12.956C132.469 13.04 132.931 13.166 133.239 13.334C133.575 13.474 133.855 13.698 134.079 14.006C134.779 14.706 135.129 15.518 135.129 16.442C135.017 17.114 134.583 17.884 133.827 18.752C133.071 19.62 132.161 20.32 131.097 20.852C130.593 21.02 130.019 21.104 129.375 21.104C128.507 21.104 127.807 20.922 127.275 20.558C127.023 20.474 126.827 20.432 126.687 20.432C126.435 20.432 126.239 20.6 126.099 20.936C125.987 21.272 125.875 21.888 125.763 22.784C125.735 22.98 125.721 23.26 125.721 23.624C125.721 25.052 126.197 25.836 127.149 25.976C127.793 26.116 128.255 26.186 128.535 26.186C128.871 26.186 129.249 26.074 129.669 25.85L130.467 25.388C130.635 25.304 130.789 25.192 130.929 25.052C131.069 24.912 131.195 24.786 131.307 24.674C131.363 24.618 131.447 24.534 131.559 24.422C131.671 24.282 131.769 24.198 131.853 24.17C131.965 24.114 132.063 24.086 132.147 24.086C132.259 24.086 132.385 24.156 132.525 24.296C132.665 24.408 132.777 24.492 132.861 24.548C133.113 24.548 133.169 24.73 133.029 25.094C132.889 25.43 132.581 25.836 132.105 26.312C131.657 26.76 131.139 27.166 130.551 27.53ZM130.509 18.626C130.985 18.43 131.461 18.08 131.937 17.576C132.441 17.072 132.693 16.652 132.693 16.316C132.693 15.98 132.567 15.7 132.315 15.476C132.063 15.252 131.713 15.14 131.265 15.14C130.929 15.14 130.677 15.168 130.509 15.224C130.117 15.336 129.655 15.644 129.123 16.148C128.591 16.624 128.129 17.114 127.737 17.618C127.345 18.122 127.191 18.416 127.275 18.5C127.415 18.752 127.961 18.878 128.913 18.878C129.557 18.878 130.089 18.794 130.509 18.626Z" fill="white"/>
</svg>
